# xmcd
#
# Track frame offsets: 
#        187
#        13270
#        26777
#        43597
#        60290
#        76480
#        91360
#        108297
#        122997
#        136055
#
# Disc length: 2048 seconds
#
# Revision: 4
# Processed by: cddbd v1.5.1PL2 Copyright (c) Steve Scherf et al.
# Submitted via: ExactAudioCopy v0.95b4
#
DISCID=7c07fe0a
DTITLE=Don Williams - True Love
DYEAR=1990
DGENRE=Country
TTITLE0=True Love
TTITLE1=Lord Have Mercy On A Country Boy
TTITLE2=Darlin' That's What Your Love Does
TTITLE3=Come A Little Closer
TTITLE4=Just 'Cause I'm In Love With You
TTITLE5=Back In My Younger Days
TTITLE6=Donald And June
TTITLE7=Diamonds To Dust
TTITLE8=Jamaica Farewell
TTITLE9=Loving You's Like Coming Home
EXTD=
EXTT0=
EXTT1=
EXTT2=
EXTT3=
EXTT4=
EXTT5=
EXTT6=
EXTT7=
EXTT8=
EXTT9=
PLAYORDER=
